<?xml version="1.0" encoding="utf-8"?>
<svg xmlns="http://www.w3.org/2000/svg" xmlns:xlink="http://www.w3.org/1999/xlink" width="600" height="400" viewBox="0 0 2400 1600">
<defs>
  <clipPath id="clip060">
    <rect x="0" y="0" width="2400" height="1600"/>
  </clipPath>
</defs>
<path clip-path="url(#clip060)" d="M0 1600 L2400 1600 L2400 0 L0 0  Z" fill="#ffffff" fill-rule="evenodd" fill-opacity="1"/>
<defs>
  <clipPath id="clip061">
    <rect x="480" y="0" width="1681" height="1600"/>
  </clipPath>
</defs>
<path clip-path="url(#clip060)" d="M141.853 1486.45 L2352.76 1486.45 L2352.76 47.2441 L141.853 47.2441  Z" fill="#ffffff" fill-rule="evenodd" fill-opacity="1"/>
<defs>
  <clipPath id="clip062">
    <rect x="141" y="47" width="2212" height="1440"/>
  </clipPath>
</defs>
<polyline clip-path="url(#clip062)" style="stroke:#000000; stroke-linecap:round; stroke-linejoin:round; stroke-width:2; stroke-opacity:0.1; fill:none" points="204.426,1486.45 204.426,47.2441 "/>
<polyline clip-path="url(#clip062)" style="stroke:#000000; stroke-linecap:round; stroke-linejoin:round; stroke-width:2; stroke-opacity:0.1; fill:none" points="868.216,1486.45 868.216,47.2441 "/>
<polyline clip-path="url(#clip062)" style="stroke:#000000; stroke-linecap:round; stroke-linejoin:round; stroke-width:2; stroke-opacity:0.1; fill:none" points="1532.01,1486.45 1532.01,47.2441 "/>
<polyline clip-path="url(#clip062)" style="stroke:#000000; stroke-linecap:round; stroke-linejoin:round; stroke-width:2; stroke-opacity:0.1; fill:none" points="2195.8,1486.45 2195.8,47.2441 "/>
<polyline clip-path="url(#clip060)" style="stroke:#000000; stroke-linecap:round; stroke-linejoin:round; stroke-width:4; stroke-opacity:1; fill:none" points="141.853,1486.45 2352.76,1486.45 "/>
<polyline clip-path="url(#clip060)" style="stroke:#000000; stroke-linecap:round; stroke-linejoin:round; stroke-width:4; stroke-opacity:1; fill:none" points="204.426,1486.45 204.426,1467.55 "/>
<polyline clip-path="url(#clip060)" style="stroke:#000000; stroke-linecap:round; stroke-linejoin:round; stroke-width:4; stroke-opacity:1; fill:none" points="868.216,1486.45 868.216,1467.55 "/>
<polyline clip-path="url(#clip060)" style="stroke:#000000; stroke-linecap:round; stroke-linejoin:round; stroke-width:4; stroke-opacity:1; fill:none" points="1532.01,1486.45 1532.01,1467.55 "/>
<polyline clip-path="url(#clip060)" style="stroke:#000000; stroke-linecap:round; stroke-linejoin:round; stroke-width:4; stroke-opacity:1; fill:none" points="2195.8,1486.45 2195.8,1467.55 "/>
<path clip-path="url(#clip060)" d="M204.426 1517.37 Q200.815 1517.37 198.986 1520.93 Q197.18 1524.47 197.18 1531.6 Q197.18 1538.71 198.986 1542.27 Q200.815 1545.82 204.426 1545.82 Q208.06 1545.82 209.865 1542.27 Q211.694 1538.71 211.694 1531.6 Q211.694 1524.47 209.865 1520.93 Q208.06 1517.37 204.426 1517.37 M204.426 1513.66 Q210.236 1513.66 213.291 1518.27 Q216.37 1522.85 216.37 1531.6 Q216.37 1540.33 213.291 1544.94 Q210.236 1549.52 204.426 1549.52 Q198.616 1549.52 195.537 1544.94 Q192.481 1540.33 192.481 1531.6 Q192.481 1522.85 195.537 1518.27 Q198.616 1513.66 204.426 1513.66 Z" fill="#000000" fill-rule="nonzero" fill-opacity="1" /><path clip-path="url(#clip060)" d="M842.915 1514.29 L861.271 1514.29 L861.271 1518.22 L847.197 1518.22 L847.197 1526.7 Q848.216 1526.35 849.234 1526.19 Q850.253 1526 851.271 1526 Q857.058 1526 860.438 1529.17 Q863.818 1532.34 863.818 1537.76 Q863.818 1543.34 860.345 1546.44 Q856.873 1549.52 850.554 1549.52 Q848.378 1549.52 846.109 1549.15 Q843.864 1548.78 841.457 1548.04 L841.457 1543.34 Q843.54 1544.47 845.762 1545.03 Q847.984 1545.58 850.461 1545.58 Q854.466 1545.58 856.804 1543.48 Q859.142 1541.37 859.142 1537.76 Q859.142 1534.15 856.804 1532.04 Q854.466 1529.94 850.461 1529.94 Q848.586 1529.94 846.711 1530.35 Q844.859 1530.77 842.915 1531.65 L842.915 1514.29 Z" fill="#000000" fill-rule="nonzero" fill-opacity="1" /><path clip-path="url(#clip060)" d="M883.03 1517.37 Q879.419 1517.37 877.591 1520.93 Q875.785 1524.47 875.785 1531.6 Q875.785 1538.71 877.591 1542.27 Q879.419 1545.82 883.03 1545.82 Q886.665 1545.82 888.47 1542.27 Q890.299 1538.71 890.299 1531.6 Q890.299 1524.47 888.47 1520.93 Q886.665 1517.37 883.03 1517.37 M883.03 1513.66 Q888.841 1513.66 891.896 1518.27 Q894.975 1522.85 894.975 1531.6 Q894.975 1540.33 891.896 1544.94 Q888.841 1549.52 883.03 1549.52 Q877.22 1549.52 874.142 1544.94 Q871.086 1540.33 871.086 1531.6 Q871.086 1522.85 874.142 1518.27 Q877.22 1513.66 883.03 1513.66 Z" fill="#000000" fill-rule="nonzero" fill-opacity="1" /><path clip-path="url(#clip060)" d="M1491.61 1544.91 L1499.25 1544.91 L1499.25 1518.55 L1490.94 1520.21 L1490.94 1515.95 L1499.2 1514.29 L1503.88 1514.29 L1503.88 1544.91 L1511.52 1544.91 L1511.52 1548.85 L1491.61 1548.85 L1491.61 1544.91 Z" fill="#000000" fill-rule="nonzero" fill-opacity="1" /><path clip-path="url(#clip060)" d="M1530.96 1517.37 Q1527.35 1517.37 1525.52 1520.93 Q1523.72 1524.47 1523.72 1531.6 Q1523.72 1538.71 1525.52 1542.27 Q1527.35 1545.82 1530.96 1545.82 Q1534.6 1545.82 1536.4 1542.27 Q1538.23 1538.71 1538.23 1531.6 Q1538.23 1524.47 1536.4 1520.93 Q1534.6 1517.37 1530.96 1517.37 M1530.96 1513.66 Q1536.77 1513.66 1539.83 1518.27 Q1542.91 1522.85 1542.91 1531.6 Q1542.91 1540.33 1539.83 1544.94 Q1536.77 1549.52 1530.96 1549.52 Q1525.15 1549.52 1522.08 1544.94 Q1519.02 1540.33 1519.02 1531.6 Q1519.02 1522.85 1522.08 1518.27 Q1525.15 1513.66 1530.96 1513.66 Z" fill="#000000" fill-rule="nonzero" fill-opacity="1" /><path clip-path="url(#clip060)" d="M1561.13 1517.37 Q1557.51 1517.37 1555.69 1520.93 Q1553.88 1524.47 1553.88 1531.6 Q1553.88 1538.71 1555.69 1542.27 Q1557.51 1545.82 1561.13 1545.82 Q1564.76 1545.82 1566.57 1542.27 Q1568.39 1538.71 1568.39 1531.6 Q1568.39 1524.47 1566.57 1520.93 Q1564.76 1517.37 1561.13 1517.37 M1561.13 1513.66 Q1566.94 1513.66 1569.99 1518.27 Q1573.07 1522.85 1573.07 1531.6 Q1573.07 1540.33 1569.99 1544.94 Q1566.94 1549.52 1561.13 1549.52 Q1555.32 1549.52 1552.24 1544.94 Q1549.18 1540.33 1549.18 1531.6 Q1549.18 1522.85 1552.24 1518.27 Q1555.32 1513.66 1561.13 1513.66 Z" fill="#000000" fill-rule="nonzero" fill-opacity="1" /><path clip-path="url(#clip060)" d="M2155.4 1544.91 L2163.04 1544.91 L2163.04 1518.55 L2154.73 1520.21 L2154.73 1515.95 L2162.99 1514.29 L2167.67 1514.29 L2167.67 1544.91 L2175.31 1544.91 L2175.31 1548.85 L2155.4 1548.85 L2155.4 1544.91 Z" fill="#000000" fill-rule="nonzero" fill-opacity="1" /><path clip-path="url(#clip060)" d="M2184.8 1514.29 L2203.16 1514.29 L2203.16 1518.22 L2189.08 1518.22 L2189.08 1526.7 Q2190.1 1526.35 2191.12 1526.19 Q2192.14 1526 2193.16 1526 Q2198.94 1526 2202.32 1529.17 Q2205.7 1532.34 2205.7 1537.76 Q2205.7 1543.34 2202.23 1546.44 Q2198.76 1549.52 2192.44 1549.52 Q2190.26 1549.52 2187.99 1549.15 Q2185.75 1548.78 2183.34 1548.04 L2183.34 1543.34 Q2185.43 1544.47 2187.65 1545.03 Q2189.87 1545.58 2192.35 1545.58 Q2196.35 1545.58 2198.69 1543.48 Q2201.03 1541.37 2201.03 1537.76 Q2201.03 1534.15 2198.69 1532.04 Q2196.35 1529.94 2192.35 1529.94 Q2190.47 1529.94 2188.6 1530.35 Q2186.74 1530.77 2184.8 1531.65 L2184.8 1514.29 Z" fill="#000000" fill-rule="nonzero" fill-opacity="1" /><path clip-path="url(#clip060)" d="M2224.92 1517.37 Q2221.3 1517.37 2219.48 1520.93 Q2217.67 1524.47 2217.67 1531.6 Q2217.67 1538.71 2219.48 1542.27 Q2221.3 1545.82 2224.92 1545.82 Q2228.55 1545.82 2230.36 1542.27 Q2232.18 1538.71 2232.18 1531.6 Q2232.18 1524.47 2230.36 1520.93 Q2228.55 1517.37 2224.92 1517.37 M2224.92 1513.66 Q2230.73 1513.66 2233.78 1518.27 Q2236.86 1522.85 2236.86 1531.6 Q2236.86 1540.33 2233.78 1544.94 Q2230.73 1549.52 2224.92 1549.52 Q2219.11 1549.52 2216.03 1544.94 Q2212.97 1540.33 2212.97 1531.6 Q2212.97 1522.85 2216.03 1518.27 Q2219.11 1513.66 2224.92 1513.66 Z" fill="#000000" fill-rule="nonzero" fill-opacity="1" /><polyline clip-path="url(#clip062)" style="stroke:#000000; stroke-linecap:round; stroke-linejoin:round; stroke-width:2; stroke-opacity:0.1; fill:none" points="141.853,1445.72 2352.76,1445.72 "/>
<polyline clip-path="url(#clip062)" style="stroke:#000000; stroke-linecap:round; stroke-linejoin:round; stroke-width:2; stroke-opacity:0.1; fill:none" points="141.853,1242.38 2352.76,1242.38 "/>
<polyline clip-path="url(#clip062)" style="stroke:#000000; stroke-linecap:round; stroke-linejoin:round; stroke-width:2; stroke-opacity:0.1; fill:none" points="141.853,1039.04 2352.76,1039.04 "/>
<polyline clip-path="url(#clip062)" style="stroke:#000000; stroke-linecap:round; stroke-linejoin:round; stroke-width:2; stroke-opacity:0.1; fill:none" points="141.853,835.698 2352.76,835.698 "/>
<polyline clip-path="url(#clip062)" style="stroke:#000000; stroke-linecap:round; stroke-linejoin:round; stroke-width:2; stroke-opacity:0.1; fill:none" points="141.853,632.359 2352.76,632.359 "/>
<polyline clip-path="url(#clip062)" style="stroke:#000000; stroke-linecap:round; stroke-linejoin:round; stroke-width:2; stroke-opacity:0.1; fill:none" points="141.853,429.02 2352.76,429.02 "/>
<polyline clip-path="url(#clip062)" style="stroke:#000000; stroke-linecap:round; stroke-linejoin:round; stroke-width:2; stroke-opacity:0.1; fill:none" points="141.853,225.681 2352.76,225.681 "/>
<polyline clip-path="url(#clip060)" style="stroke:#000000; stroke-linecap:round; stroke-linejoin:round; stroke-width:4; stroke-opacity:1; fill:none" points="141.853,1486.45 141.853,47.2441 "/>
<polyline clip-path="url(#clip060)" style="stroke:#000000; stroke-linecap:round; stroke-linejoin:round; stroke-width:4; stroke-opacity:1; fill:none" points="141.853,1445.72 160.751,1445.72 "/>
<polyline clip-path="url(#clip060)" style="stroke:#000000; stroke-linecap:round; stroke-linejoin:round; stroke-width:4; stroke-opacity:1; fill:none" points="141.853,1242.38 160.751,1242.38 "/>
<polyline clip-path="url(#clip060)" style="stroke:#000000; stroke-linecap:round; stroke-linejoin:round; stroke-width:4; stroke-opacity:1; fill:none" points="141.853,1039.04 160.751,1039.04 "/>
<polyline clip-path="url(#clip060)" style="stroke:#000000; stroke-linecap:round; stroke-linejoin:round; stroke-width:4; stroke-opacity:1; fill:none" points="141.853,835.698 160.751,835.698 "/>
<polyline clip-path="url(#clip060)" style="stroke:#000000; stroke-linecap:round; stroke-linejoin:round; stroke-width:4; stroke-opacity:1; fill:none" points="141.853,632.359 160.751,632.359 "/>
<polyline clip-path="url(#clip060)" style="stroke:#000000; stroke-linecap:round; stroke-linejoin:round; stroke-width:4; stroke-opacity:1; fill:none" points="141.853,429.02 160.751,429.02 "/>
<polyline clip-path="url(#clip060)" style="stroke:#000000; stroke-linecap:round; stroke-linejoin:round; stroke-width:4; stroke-opacity:1; fill:none" points="141.853,225.681 160.751,225.681 "/>
<path clip-path="url(#clip060)" d="M93.9086 1431.51 Q90.2975 1431.51 88.4688 1435.08 Q86.6632 1438.62 86.6632 1445.75 Q86.6632 1452.86 88.4688 1456.42 Q90.2975 1459.96 93.9086 1459.96 Q97.5428 1459.96 99.3483 1456.42 Q101.177 1452.86 101.177 1445.75 Q101.177 1438.62 99.3483 1435.08 Q97.5428 1431.51 93.9086 1431.51 M93.9086 1427.81 Q99.7187 1427.81 102.774 1432.42 Q105.853 1437 105.853 1445.75 Q105.853 1454.48 102.774 1459.08 Q99.7187 1463.67 93.9086 1463.67 Q88.0984 1463.67 85.0197 1459.08 Q81.9642 1454.48 81.9642 1445.75 Q81.9642 1437 85.0197 1432.42 Q88.0984 1427.81 93.9086 1427.81 Z" fill="#000000" fill-rule="nonzero" fill-opacity="1" /><path clip-path="url(#clip060)" d="M54.5569 1255.72 L62.1958 1255.72 L62.1958 1229.36 L53.8856 1231.02 L53.8856 1226.76 L62.1495 1225.1 L66.8254 1225.1 L66.8254 1255.72 L74.4642 1255.72 L74.4642 1259.66 L54.5569 1259.66 L54.5569 1255.72 Z" fill="#000000" fill-rule="nonzero" fill-opacity="1" /><path clip-path="url(#clip060)" d="M93.9086 1228.18 Q90.2975 1228.18 88.4688 1231.74 Q86.6632 1235.28 86.6632 1242.41 Q86.6632 1249.52 88.4688 1253.08 Q90.2975 1256.62 93.9086 1256.62 Q97.5428 1256.62 99.3483 1253.08 Q101.177 1249.52 101.177 1242.41 Q101.177 1235.28 99.3483 1231.74 Q97.5428 1228.18 93.9086 1228.18 M93.9086 1224.47 Q99.7187 1224.47 102.774 1229.08 Q105.853 1233.66 105.853 1242.41 Q105.853 1251.14 102.774 1255.74 Q99.7187 1260.33 93.9086 1260.33 Q88.0984 1260.33 85.0197 1255.74 Q81.9642 1251.14 81.9642 1242.41 Q81.9642 1233.66 85.0197 1229.08 Q88.0984 1224.47 93.9086 1224.47 Z" fill="#000000" fill-rule="nonzero" fill-opacity="1" /><path clip-path="url(#clip060)" d="M57.7745 1052.38 L74.0939 1052.38 L74.0939 1056.32 L52.1495 1056.32 L52.1495 1052.38 Q54.8115 1049.63 59.3949 1045 Q64.0013 1040.35 65.1819 1039 Q67.4272 1036.48 68.3068 1034.74 Q69.2096 1032.98 69.2096 1031.29 Q69.2096 1028.54 67.2652 1026.8 Q65.3439 1025.07 62.2421 1025.07 Q60.043 1025.07 57.5893 1025.83 Q55.1588 1026.6 52.381 1028.15 L52.381 1023.42 Q55.2051 1022.29 57.6588 1021.71 Q60.1124 1021.13 62.1495 1021.13 Q67.5198 1021.13 70.7142 1023.82 Q73.9087 1026.5 73.9087 1030.99 Q73.9087 1033.12 73.0985 1035.04 Q72.3115 1036.94 70.205 1039.54 Q69.6263 1040.21 66.5245 1043.42 Q63.4226 1046.62 57.7745 1052.38 Z" fill="#000000" fill-rule="nonzero" fill-opacity="1" /><path clip-path="url(#clip060)" d="M93.9086 1024.84 Q90.2975 1024.84 88.4688 1028.4 Q86.6632 1031.94 86.6632 1039.07 Q86.6632 1046.18 88.4688 1049.74 Q90.2975 1053.29 93.9086 1053.29 Q97.5428 1053.29 99.3483 1049.74 Q101.177 1046.18 101.177 1039.07 Q101.177 1031.94 99.3483 1028.4 Q97.5428 1024.84 93.9086 1024.84 M93.9086 1021.13 Q99.7187 1021.13 102.774 1025.74 Q105.853 1030.32 105.853 1039.07 Q105.853 1047.8 102.774 1052.41 Q99.7187 1056.99 93.9086 1056.99 Q88.0984 1056.99 85.0197 1052.41 Q81.9642 1047.8 81.9642 1039.07 Q81.9642 1030.32 85.0197 1025.74 Q88.0984 1021.13 93.9086 1021.13 Z" fill="#000000" fill-rule="nonzero" fill-opacity="1" /><path clip-path="url(#clip060)" d="M67.9133 834.344 Q71.2698 835.062 73.1448 837.33 Q75.0429 839.599 75.0429 842.932 Q75.0429 848.048 71.5244 850.849 Q68.0059 853.65 61.5245 853.65 Q59.3486 853.65 57.0338 853.21 Q54.7421 852.793 52.2884 851.937 L52.2884 847.423 Q54.2328 848.557 56.5477 849.136 Q58.8625 849.714 61.3856 849.714 Q65.7837 849.714 68.0754 847.978 Q70.3902 846.242 70.3902 842.932 Q70.3902 839.876 68.2374 838.164 Q66.1078 836.427 62.2884 836.427 L58.2606 836.427 L58.2606 832.585 L62.4735 832.585 Q65.9226 832.585 67.7513 831.219 Q69.58 829.83 69.58 827.238 Q69.58 824.576 67.6819 823.164 Q65.8069 821.728 62.2884 821.728 Q60.3671 821.728 58.168 822.145 Q55.969 822.562 53.3301 823.441 L53.3301 819.275 Q55.9921 818.534 58.3069 818.164 Q60.6449 817.793 62.705 817.793 Q68.0291 817.793 71.1309 820.224 Q74.2327 822.631 74.2327 826.752 Q74.2327 829.622 72.5892 831.613 Q70.9457 833.58 67.9133 834.344 Z" fill="#000000" fill-rule="nonzero" fill-opacity="1" /><path clip-path="url(#clip060)" d="M93.9086 821.497 Q90.2975 821.497 88.4688 825.062 Q86.6632 828.603 86.6632 835.733 Q86.6632 842.839 88.4688 846.404 Q90.2975 849.946 93.9086 849.946 Q97.5428 849.946 99.3483 846.404 Q101.177 842.839 101.177 835.733 Q101.177 828.603 99.3483 825.062 Q97.5428 821.497 93.9086 821.497 M93.9086 817.793 Q99.7187 817.793 102.774 822.4 Q105.853 826.983 105.853 835.733 Q105.853 844.46 102.774 849.066 Q99.7187 853.65 93.9086 853.65 Q88.0984 853.65 85.0197 849.066 Q81.9642 844.46 81.9642 835.733 Q81.9642 826.983 85.0197 822.4 Q88.0984 817.793 93.9086 817.793 Z" fill="#000000" fill-rule="nonzero" fill-opacity="1" /><path clip-path="url(#clip060)" d="M66.5939 619.153 L54.7884 637.602 L66.5939 637.602 L66.5939 619.153 M65.367 615.079 L71.2466 615.079 L71.2466 637.602 L76.1772 637.602 L76.1772 641.491 L71.2466 641.491 L71.2466 649.639 L66.5939 649.639 L66.5939 641.491 L50.9921 641.491 L50.9921 636.977 L65.367 615.079 Z" fill="#000000" fill-rule="nonzero" fill-opacity="1" /><path clip-path="url(#clip060)" d="M93.9086 618.158 Q90.2975 618.158 88.4688 621.723 Q86.6632 625.264 86.6632 632.394 Q86.6632 639.5 88.4688 643.065 Q90.2975 646.607 93.9086 646.607 Q97.5428 646.607 99.3483 643.065 Q101.177 639.5 101.177 632.394 Q101.177 625.264 99.3483 621.723 Q97.5428 618.158 93.9086 618.158 M93.9086 614.454 Q99.7187 614.454 102.774 619.061 Q105.853 623.644 105.853 632.394 Q105.853 641.121 102.774 645.727 Q99.7187 650.31 93.9086 650.31 Q88.0984 650.31 85.0197 645.727 Q81.9642 641.121 81.9642 632.394 Q81.9642 623.644 85.0197 619.061 Q88.0984 614.454 93.9086 614.454 Z" fill="#000000" fill-rule="nonzero" fill-opacity="1" /><path clip-path="url(#clip060)" d="M53.793 411.74 L72.1494 411.74 L72.1494 415.675 L58.0754 415.675 L58.0754 424.147 Q59.0939 423.8 60.1124 423.638 Q61.131 423.453 62.1495 423.453 Q67.9365 423.453 71.3161 426.624 Q74.6957 429.795 74.6957 435.212 Q74.6957 440.791 71.2235 443.893 Q67.7513 446.971 61.4319 446.971 Q59.256 446.971 56.9875 446.601 Q54.7421 446.231 52.3347 445.49 L52.3347 440.791 Q54.418 441.925 56.6402 442.481 Q58.8625 443.036 61.3393 443.036 Q65.3439 443.036 67.6819 440.93 Q70.0198 438.823 70.0198 435.212 Q70.0198 431.601 67.6819 429.494 Q65.3439 427.388 61.3393 427.388 Q59.4643 427.388 57.5893 427.805 Q55.7375 428.221 53.793 429.101 L53.793 411.74 Z" fill="#000000" fill-rule="nonzero" fill-opacity="1" /><path clip-path="url(#clip060)" d="M93.9086 414.819 Q90.2975 414.819 88.4688 418.383 Q86.6632 421.925 86.6632 429.055 Q86.6632 436.161 88.4688 439.726 Q90.2975 443.268 93.9086 443.268 Q97.5428 443.268 99.3483 439.726 Q101.177 436.161 101.177 429.055 Q101.177 421.925 99.3483 418.383 Q97.5428 414.819 93.9086 414.819 M93.9086 411.115 Q99.7187 411.115 102.774 415.721 Q105.853 420.305 105.853 429.055 Q105.853 437.781 102.774 442.388 Q99.7187 446.971 93.9086 446.971 Q88.0984 446.971 85.0197 442.388 Q81.9642 437.781 81.9642 429.055 Q81.9642 420.305 85.0197 415.721 Q88.0984 411.115 93.9086 411.115 Z" fill="#000000" fill-rule="nonzero" fill-opacity="1" /><path clip-path="url(#clip060)" d="M64.3254 223.817 Q61.1773 223.817 59.3254 225.97 Q57.4967 228.123 57.4967 231.873 Q57.4967 235.6 59.3254 237.776 Q61.1773 239.928 64.3254 239.928 Q67.4735 239.928 69.3022 237.776 Q71.1541 235.6 71.1541 231.873 Q71.1541 228.123 69.3022 225.97 Q67.4735 223.817 64.3254 223.817 M73.6077 209.165 L73.6077 213.424 Q71.8485 212.591 70.0429 212.151 Q68.2606 211.711 66.5013 211.711 Q61.8717 211.711 59.418 214.836 Q56.9875 217.961 56.6402 224.28 Q58.006 222.266 60.0662 221.202 Q62.1263 220.114 64.6032 220.114 Q69.8115 220.114 72.8207 223.285 Q75.8531 226.433 75.8531 231.873 Q75.8531 237.197 72.705 240.415 Q69.5568 243.632 64.3254 243.632 Q58.33 243.632 55.1588 239.049 Q51.9875 234.442 51.9875 225.716 Q51.9875 217.521 55.8764 212.66 Q59.7652 207.776 66.3161 207.776 Q68.0754 207.776 69.8578 208.123 Q71.6633 208.47 73.6077 209.165 Z" fill="#000000" fill-rule="nonzero" fill-opacity="1" /><path clip-path="url(#clip060)" d="M93.9086 211.48 Q90.2975 211.48 88.4688 215.044 Q86.6632 218.586 86.6632 225.716 Q86.6632 232.822 88.4688 236.387 Q90.2975 239.928 93.9086 239.928 Q97.5428 239.928 99.3483 236.387 Q101.177 232.822 101.177 225.716 Q101.177 218.586 99.3483 215.044 Q97.5428 211.48 93.9086 211.48 M93.9086 207.776 Q99.7187 207.776 102.774 212.382 Q105.853 216.966 105.853 225.716 Q105.853 234.442 102.774 239.049 Q99.7187 243.632 93.9086 243.632 Q88.0984 243.632 85.0197 239.049 Q81.9642 234.442 81.9642 225.716 Q81.9642 216.966 85.0197 212.382 Q88.0984 207.776 93.9086 207.776 Z" fill="#000000" fill-rule="nonzero" fill-opacity="1" /><polyline clip-path="url(#clip062)" style="stroke:#009af9; stroke-linecap:round; stroke-linejoin:round; stroke-width:4; stroke-opacity:1; fill:none" points="204.426,1445.72 216.075,1427.9 323.794,1265.63 388.529,1170.43 443.261,1091.42 502.716,1007.24 557.528,931.267 616.292,851.688 684.376,762.118 744.881,685.105 797.938,619.758 855.785,551.053 913.976,484.866 946.145,449.644 978.313,415.466 1008.92,383.973 1039.53,353.54 1071.35,323.087 1103.18,293.926 1129.97,270.441 1156.76,247.988 1189.46,222.062 1222.17,197.885 1252.13,177.388 1282.1,158.589 1309.77,142.847 1337.44,128.777 1365.47,116.359 1393.5,105.936 1424.92,96.8288 1456.33,90.7007 1484.8,87.9763 1513.27,88.2131 1529.56,89.797 1545.86,92.5142 1562.15,96.4347 1578.45,101.635 1593.54,107.665 1608.63,114.937 1623.72,123.533 1638.81,133.541 1653.68,144.885 1668.56,157.801 1683.43,172.404 1698.31,188.821 1712.75,206.634 1727.2,226.44 1741.64,248.405 1756.08,272.718 1770.89,300.3 1785.7,330.836 1793.1,347.303 1800.5,364.626 1807.91,382.851 1815.31,402.025 1823.42,424.187 1831.53,447.632 1839.64,472.442 1847.75,498.713 1855.86,526.546 1863.97,556.055 1872.09,587.368 1880.2,620.628 1886.09,646.095 1891.98,672.742 1897.87,700.64 1903.76,729.874 1909.65,760.531 1915.54,792.711 1921.44,826.524 1927.33,862.093 1933.22,899.553 1939.11,939.057 1945,980.779 1950.89,1024.91 1956.78,1071.68 1962.67,1121.33 1968.57,1174.17 1974.46,1230.53 1976.87,1254.76 1979.29,1279.68 1981.71,1305.33 1984.13,1331.73 1986.54,1358.93 1988.96,1386.96 1991.38,1415.87 1993.79,1445.72 "/>
<polyline clip-path="url(#clip062)" style="stroke:#e26f46; stroke-linecap:round; stroke-linejoin:round; stroke-width:4; stroke-opacity:1; fill:none" points="204.426,1445.72 218.005,1435.47 343.566,1342.87 419.024,1289.16 482.822,1244.98 552.124,1198.34 616.015,1156.68 650.264,1134.91 684.513,1113.55 724.193,1089.32 763.874,1065.69 799.138,1045.21 834.401,1025.23 865.324,1008.15 896.247,991.482 929.961,973.812 963.675,956.682 997.59,940.017 1031.5,923.946 1069,906.901 1106.5,890.651 1142.18,875.966 1177.85,862.077 1214.95,848.522 1252.05,835.921 1283.27,826.093 1314.5,817.013 1352.63,806.996 1390.75,798.225 1425.67,791.351 1460.6,785.658 1492.85,781.513 1525.11,778.502 1557.78,776.681 1590.46,776.176 1608.77,776.501 1627.08,777.283 1645.39,778.54 1663.7,780.291 1696.88,784.787 1730.06,791.099 1749.06,795.584 1768.05,800.741 1787.05,806.6 1806.04,813.197 1823.63,819.993 1841.22,827.483 1858.81,835.699 1876.4,844.679 1893.74,854.315 1911.08,864.769 1928.42,876.084 1945.76,888.305 1962.59,901.085 1979.43,914.816 1996.26,929.552 2013.1,945.351 2030.36,962.716 2047.62,981.34 2064.87,1001.3 2082.13,1022.7 2091.59,1035.06 2101.04,1047.9 2110.5,1061.23 2119.95,1075.09 2129.41,1089.47 2138.86,1104.42 2148.31,1119.95 2157.77,1136.09 2171.5,1160.67 2185.24,1186.69 2198.97,1214.24 2212.71,1243.44 2219.57,1258.69 2226.44,1274.4 2233.31,1290.58 2240.17,1307.26 2247.04,1324.46 2253.91,1342.19 2260.78,1360.48 2267.64,1379.35 2273.28,1395.29 2278.91,1411.65 2284.55,1428.46 2290.18,1445.72 "/>
<path clip-path="url(#clip060)" d="M215.55 250.738 L489.07 250.738 L489.07 95.2176 L215.55 95.2176  Z" fill="#ffffff" fill-rule="evenodd" fill-opacity="1"/>
<polyline clip-path="url(#clip060)" style="stroke:#000000; stroke-linecap:round; stroke-linejoin:round; stroke-width:4; stroke-opacity:1; fill:none" points="215.55,250.738 489.07,250.738 489.07,95.2176 215.55,95.2176 215.55,250.738 "/>
<polyline clip-path="url(#clip060)" style="stroke:#009af9; stroke-linecap:round; stroke-linejoin:round; stroke-width:4; stroke-opacity:1; fill:none" points="240.115,147.058 387.509,147.058 "/>
<path clip-path="url(#clip060)" d="M425.917 166.745 Q424.111 171.375 422.398 172.787 Q420.685 174.199 417.815 174.199 L414.412 174.199 L414.412 170.634 L416.912 170.634 Q418.672 170.634 419.644 169.8 Q420.616 168.967 421.797 165.865 L422.56 163.921 L412.074 138.412 L416.588 138.412 L424.69 158.689 L432.792 138.412 L437.306 138.412 L425.917 166.745 Z" fill="#000000" fill-rule="nonzero" fill-opacity="1" /><path clip-path="url(#clip060)" d="M444.597 160.402 L452.236 160.402 L452.236 134.037 L443.926 135.703 L443.926 131.444 L452.19 129.778 L456.866 129.778 L456.866 160.402 L464.505 160.402 L464.505 164.338 L444.597 164.338 L444.597 160.402 Z" fill="#000000" fill-rule="nonzero" fill-opacity="1" /><polyline clip-path="url(#clip060)" style="stroke:#e26f46; stroke-linecap:round; stroke-linejoin:round; stroke-width:4; stroke-opacity:1; fill:none" points="240.115,198.898 387.509,198.898 "/>
<path clip-path="url(#clip060)" d="M425.917 218.585 Q424.111 223.215 422.398 224.627 Q420.685 226.039 417.815 226.039 L414.412 226.039 L414.412 222.474 L416.912 222.474 Q418.672 222.474 419.644 221.64 Q420.616 220.807 421.797 217.705 L422.56 215.761 L412.074 190.252 L416.588 190.252 L424.69 210.529 L432.792 190.252 L437.306 190.252 L425.917 218.585 Z" fill="#000000" fill-rule="nonzero" fill-opacity="1" /><path clip-path="url(#clip060)" d="M447.815 212.242 L464.134 212.242 L464.134 216.178 L442.19 216.178 L442.19 212.242 Q444.852 209.488 449.435 204.858 Q454.042 200.205 455.222 198.863 Q457.468 196.34 458.347 194.604 Q459.25 192.844 459.25 191.155 Q459.25 188.4 457.306 186.664 Q455.384 184.928 452.283 184.928 Q450.083 184.928 447.63 185.692 Q445.199 186.455 442.421 188.006 L442.421 183.284 Q445.246 182.15 447.699 181.571 Q450.153 180.993 452.19 180.993 Q457.56 180.993 460.755 183.678 Q463.949 186.363 463.949 190.854 Q463.949 192.983 463.139 194.905 Q462.352 196.803 460.245 199.395 Q459.667 200.067 456.565 203.284 Q453.463 206.479 447.815 212.242 Z" fill="#000000" fill-rule="nonzero" fill-opacity="1" /></svg>
