<?xml version="1.0" encoding="utf-8"?>
<svg xmlns="http://www.w3.org/2000/svg" xmlns:xlink="http://www.w3.org/1999/xlink" width="600" height="400" viewBox="0 0 2400 1600">
<defs>
  <clipPath id="clip000">
    <rect x="0" y="0" width="2400" height="1600"/>
  </clipPath>
</defs>
<path clip-path="url(#clip000)" d="M0 1600 L2400 1600 L2400 0 L0 0  Z" fill="#ffffff" fill-rule="evenodd" fill-opacity="1"/>
<defs>
  <clipPath id="clip001">
    <rect x="141" y="47" width="2212" height="1440"/>
  </clipPath>
</defs>
<path clip-path="url(#clip000)" d="M141.853 1486.45 L2352.76 1486.45 L2352.76 47.2441 L141.853 47.2441  Z" fill="#ffffff" fill-rule="evenodd" fill-opacity="1"/>
<polyline clip-path="url(#clip001)" style="stroke:#000000; stroke-linecap:round; stroke-linejoin:round; stroke-width:2; stroke-opacity:0.1; fill:none" points="204.426,1486.45 204.426,47.2441 "/>
<polyline clip-path="url(#clip001)" style="stroke:#000000; stroke-linecap:round; stroke-linejoin:round; stroke-width:2; stroke-opacity:0.1; fill:none" points="868.216,1486.45 868.216,47.2441 "/>
<polyline clip-path="url(#clip001)" style="stroke:#000000; stroke-linecap:round; stroke-linejoin:round; stroke-width:2; stroke-opacity:0.1; fill:none" points="1532.01,1486.45 1532.01,47.2441 "/>
<polyline clip-path="url(#clip001)" style="stroke:#000000; stroke-linecap:round; stroke-linejoin:round; stroke-width:2; stroke-opacity:0.1; fill:none" points="2195.8,1486.45 2195.8,47.2441 "/>
<polyline clip-path="url(#clip001)" style="stroke:#000000; stroke-linecap:round; stroke-linejoin:round; stroke-width:2; stroke-opacity:0.1; fill:none" points="141.853,1445.72 2352.76,1445.72 "/>
<polyline clip-path="url(#clip001)" style="stroke:#000000; stroke-linecap:round; stroke-linejoin:round; stroke-width:2; stroke-opacity:0.1; fill:none" points="141.853,1242.39 2352.76,1242.39 "/>
<polyline clip-path="url(#clip001)" style="stroke:#000000; stroke-linecap:round; stroke-linejoin:round; stroke-width:2; stroke-opacity:0.1; fill:none" points="141.853,1039.05 2352.76,1039.05 "/>
<polyline clip-path="url(#clip001)" style="stroke:#000000; stroke-linecap:round; stroke-linejoin:round; stroke-width:2; stroke-opacity:0.1; fill:none" points="141.853,835.724 2352.76,835.724 "/>
<polyline clip-path="url(#clip001)" style="stroke:#000000; stroke-linecap:round; stroke-linejoin:round; stroke-width:2; stroke-opacity:0.1; fill:none" points="141.853,632.394 2352.76,632.394 "/>
<polyline clip-path="url(#clip001)" style="stroke:#000000; stroke-linecap:round; stroke-linejoin:round; stroke-width:2; stroke-opacity:0.1; fill:none" points="141.853,429.063 2352.76,429.063 "/>
<polyline clip-path="url(#clip001)" style="stroke:#000000; stroke-linecap:round; stroke-linejoin:round; stroke-width:2; stroke-opacity:0.1; fill:none" points="141.853,225.733 2352.76,225.733 "/>
<polyline clip-path="url(#clip000)" style="stroke:#000000; stroke-linecap:round; stroke-linejoin:round; stroke-width:4; stroke-opacity:1; fill:none" points="141.853,1486.45 2352.76,1486.45 "/>
<polyline clip-path="url(#clip000)" style="stroke:#000000; stroke-linecap:round; stroke-linejoin:round; stroke-width:4; stroke-opacity:1; fill:none" points="204.426,1486.45 204.426,1467.55 "/>
<polyline clip-path="url(#clip000)" style="stroke:#000000; stroke-linecap:round; stroke-linejoin:round; stroke-width:4; stroke-opacity:1; fill:none" points="868.216,1486.45 868.216,1467.55 "/>
<polyline clip-path="url(#clip000)" style="stroke:#000000; stroke-linecap:round; stroke-linejoin:round; stroke-width:4; stroke-opacity:1; fill:none" points="1532.01,1486.45 1532.01,1467.55 "/>
<polyline clip-path="url(#clip000)" style="stroke:#000000; stroke-linecap:round; stroke-linejoin:round; stroke-width:4; stroke-opacity:1; fill:none" points="2195.8,1486.45 2195.8,1467.55 "/>
<path clip-path="url(#clip000)" d="M204.426 1517.37 Q200.815 1517.37 198.986 1520.93 Q197.18 1524.47 197.18 1531.6 Q197.18 1538.71 198.986 1542.27 Q200.815 1545.82 204.426 1545.82 Q208.06 1545.82 209.865 1542.27 Q211.694 1538.71 211.694 1531.6 Q211.694 1524.47 209.865 1520.93 Q208.06 1517.37 204.426 1517.37 M204.426 1513.66 Q210.236 1513.66 213.291 1518.27 Q216.37 1522.85 216.37 1531.6 Q216.37 1540.33 213.291 1544.94 Q210.236 1549.52 204.426 1549.52 Q198.616 1549.52 195.537 1544.94 Q192.481 1540.33 192.481 1531.6 Q192.481 1522.85 195.537 1518.27 Q198.616 1513.66 204.426 1513.66 Z" fill="#000000" fill-rule="nonzero" fill-opacity="1" /><path clip-path="url(#clip000)" d="M842.915 1514.29 L861.271 1514.29 L861.271 1518.22 L847.197 1518.22 L847.197 1526.7 Q848.216 1526.35 849.234 1526.19 Q850.253 1526 851.271 1526 Q857.058 1526 860.438 1529.17 Q863.818 1532.34 863.818 1537.76 Q863.818 1543.34 860.345 1546.44 Q856.873 1549.52 850.554 1549.52 Q848.378 1549.52 846.109 1549.15 Q843.864 1548.78 841.457 1548.04 L841.457 1543.34 Q843.54 1544.47 845.762 1545.03 Q847.984 1545.58 850.461 1545.58 Q854.466 1545.58 856.804 1543.48 Q859.142 1541.37 859.142 1537.76 Q859.142 1534.15 856.804 1532.04 Q854.466 1529.94 850.461 1529.94 Q848.586 1529.94 846.711 1530.35 Q844.859 1530.77 842.915 1531.65 L842.915 1514.29 Z" fill="#000000" fill-rule="nonzero" fill-opacity="1" /><path clip-path="url(#clip000)" d="M883.03 1517.37 Q879.419 1517.37 877.591 1520.93 Q875.785 1524.47 875.785 1531.6 Q875.785 1538.71 877.591 1542.27 Q879.419 1545.82 883.03 1545.82 Q886.665 1545.82 888.47 1542.27 Q890.299 1538.71 890.299 1531.6 Q890.299 1524.47 888.47 1520.93 Q886.665 1517.37 883.03 1517.37 M883.03 1513.66 Q888.841 1513.66 891.896 1518.27 Q894.975 1522.85 894.975 1531.6 Q894.975 1540.33 891.896 1544.94 Q888.841 1549.52 883.03 1549.52 Q877.22 1549.52 874.142 1544.94 Q871.086 1540.33 871.086 1531.6 Q871.086 1522.85 874.142 1518.27 Q877.22 1513.66 883.03 1513.66 Z" fill="#000000" fill-rule="nonzero" fill-opacity="1" /><path clip-path="url(#clip000)" d="M1491.61 1544.91 L1499.25 1544.91 L1499.25 1518.55 L1490.94 1520.21 L1490.94 1515.95 L1499.2 1514.29 L1503.88 1514.29 L1503.88 1544.91 L1511.52 1544.91 L1511.52 1548.85 L1491.61 1548.85 L1491.61 1544.91 Z" fill="#000000" fill-rule="nonzero" fill-opacity="1" /><path clip-path="url(#clip000)" d="M1530.96 1517.37 Q1527.35 1517.37 1525.52 1520.93 Q1523.72 1524.47 1523.72 1531.6 Q1523.72 1538.71 1525.52 1542.27 Q1527.35 1545.82 1530.96 1545.82 Q1534.6 1545.82 1536.4 1542.27 Q1538.23 1538.71 1538.23 1531.6 Q1538.23 1524.47 1536.4 1520.93 Q1534.6 1517.37 1530.96 1517.37 M1530.96 1513.66 Q1536.77 1513.66 1539.83 1518.27 Q1542.91 1522.85 1542.91 1531.6 Q1542.91 1540.33 1539.83 1544.94 Q1536.77 1549.52 1530.96 1549.52 Q1525.15 1549.52 1522.08 1544.94 Q1519.02 1540.33 1519.02 1531.6 Q1519.02 1522.85 1522.08 1518.27 Q1525.15 1513.66 1530.96 1513.66 Z" fill="#000000" fill-rule="nonzero" fill-opacity="1" /><path clip-path="url(#clip000)" d="M1561.13 1517.37 Q1557.51 1517.37 1555.69 1520.93 Q1553.88 1524.47 1553.88 1531.6 Q1553.88 1538.71 1555.69 1542.27 Q1557.51 1545.82 1561.13 1545.82 Q1564.76 1545.82 1566.57 1542.27 Q1568.39 1538.71 1568.39 1531.6 Q1568.39 1524.47 1566.57 1520.93 Q1564.76 1517.37 1561.13 1517.37 M1561.13 1513.66 Q1566.94 1513.66 1569.99 1518.27 Q1573.07 1522.85 1573.07 1531.6 Q1573.07 1540.33 1569.99 1544.94 Q1566.94 1549.52 1561.13 1549.52 Q1555.32 1549.52 1552.24 1544.94 Q1549.18 1540.33 1549.18 1531.6 Q1549.18 1522.85 1552.24 1518.27 Q1555.32 1513.66 1561.13 1513.66 Z" fill="#000000" fill-rule="nonzero" fill-opacity="1" /><path clip-path="url(#clip000)" d="M2155.4 1544.91 L2163.04 1544.91 L2163.04 1518.55 L2154.73 1520.21 L2154.73 1515.95 L2162.99 1514.29 L2167.67 1514.29 L2167.67 1544.91 L2175.31 1544.91 L2175.31 1548.85 L2155.4 1548.85 L2155.4 1544.91 Z" fill="#000000" fill-rule="nonzero" fill-opacity="1" /><path clip-path="url(#clip000)" d="M2184.8 1514.29 L2203.16 1514.29 L2203.16 1518.22 L2189.08 1518.22 L2189.08 1526.7 Q2190.1 1526.35 2191.12 1526.19 Q2192.14 1526 2193.16 1526 Q2198.94 1526 2202.32 1529.17 Q2205.7 1532.34 2205.7 1537.76 Q2205.7 1543.34 2202.23 1546.44 Q2198.76 1549.52 2192.44 1549.52 Q2190.26 1549.52 2187.99 1549.15 Q2185.75 1548.78 2183.34 1548.04 L2183.34 1543.34 Q2185.43 1544.47 2187.65 1545.03 Q2189.87 1545.58 2192.35 1545.58 Q2196.35 1545.58 2198.69 1543.48 Q2201.03 1541.37 2201.03 1537.76 Q2201.03 1534.15 2198.69 1532.04 Q2196.35 1529.94 2192.35 1529.94 Q2190.47 1529.94 2188.6 1530.35 Q2186.74 1530.77 2184.8 1531.65 L2184.8 1514.29 Z" fill="#000000" fill-rule="nonzero" fill-opacity="1" /><path clip-path="url(#clip000)" d="M2224.92 1517.37 Q2221.3 1517.37 2219.48 1520.93 Q2217.67 1524.47 2217.67 1531.6 Q2217.67 1538.71 2219.48 1542.27 Q2221.3 1545.82 2224.92 1545.82 Q2228.55 1545.82 2230.36 1542.27 Q2232.18 1538.71 2232.18 1531.6 Q2232.18 1524.47 2230.36 1520.93 Q2228.55 1517.37 2224.92 1517.37 M2224.92 1513.66 Q2230.73 1513.66 2233.78 1518.27 Q2236.86 1522.85 2236.86 1531.6 Q2236.86 1540.33 2233.78 1544.94 Q2230.73 1549.52 2224.92 1549.52 Q2219.11 1549.52 2216.03 1544.94 Q2212.97 1540.33 2212.97 1531.6 Q2212.97 1522.85 2216.03 1518.27 Q2219.11 1513.66 2224.92 1513.66 Z" fill="#000000" fill-rule="nonzero" fill-opacity="1" /><polyline clip-path="url(#clip000)" style="stroke:#000000; stroke-linecap:round; stroke-linejoin:round; stroke-width:4; stroke-opacity:1; fill:none" points="141.853,1486.45 141.853,47.2441 "/>
<polyline clip-path="url(#clip000)" style="stroke:#000000; stroke-linecap:round; stroke-linejoin:round; stroke-width:4; stroke-opacity:1; fill:none" points="141.853,1445.72 160.751,1445.72 "/>
<polyline clip-path="url(#clip000)" style="stroke:#000000; stroke-linecap:round; stroke-linejoin:round; stroke-width:4; stroke-opacity:1; fill:none" points="141.853,1242.39 160.751,1242.39 "/>
<polyline clip-path="url(#clip000)" style="stroke:#000000; stroke-linecap:round; stroke-linejoin:round; stroke-width:4; stroke-opacity:1; fill:none" points="141.853,1039.05 160.751,1039.05 "/>
<polyline clip-path="url(#clip000)" style="stroke:#000000; stroke-linecap:round; stroke-linejoin:round; stroke-width:4; stroke-opacity:1; fill:none" points="141.853,835.724 160.751,835.724 "/>
<polyline clip-path="url(#clip000)" style="stroke:#000000; stroke-linecap:round; stroke-linejoin:round; stroke-width:4; stroke-opacity:1; fill:none" points="141.853,632.394 160.751,632.394 "/>
<polyline clip-path="url(#clip000)" style="stroke:#000000; stroke-linecap:round; stroke-linejoin:round; stroke-width:4; stroke-opacity:1; fill:none" points="141.853,429.063 160.751,429.063 "/>
<polyline clip-path="url(#clip000)" style="stroke:#000000; stroke-linecap:round; stroke-linejoin:round; stroke-width:4; stroke-opacity:1; fill:none" points="141.853,225.733 160.751,225.733 "/>
<path clip-path="url(#clip000)" d="M93.9086 1431.51 Q90.2975 1431.51 88.4688 1435.08 Q86.6632 1438.62 86.6632 1445.75 Q86.6632 1452.86 88.4688 1456.42 Q90.2975 1459.96 93.9086 1459.96 Q97.5428 1459.96 99.3483 1456.42 Q101.177 1452.86 101.177 1445.75 Q101.177 1438.62 99.3483 1435.08 Q97.5428 1431.51 93.9086 1431.51 M93.9086 1427.81 Q99.7187 1427.81 102.774 1432.42 Q105.853 1437 105.853 1445.75 Q105.853 1454.48 102.774 1459.08 Q99.7187 1463.67 93.9086 1463.67 Q88.0984 1463.67 85.0197 1459.08 Q81.9642 1454.48 81.9642 1445.75 Q81.9642 1437 85.0197 1432.42 Q88.0984 1427.81 93.9086 1427.81 Z" fill="#000000" fill-rule="nonzero" fill-opacity="1" /><path clip-path="url(#clip000)" d="M54.5569 1255.73 L62.1958 1255.73 L62.1958 1229.36 L53.8856 1231.03 L53.8856 1226.77 L62.1495 1225.11 L66.8254 1225.11 L66.8254 1255.73 L74.4642 1255.73 L74.4642 1259.67 L54.5569 1259.67 L54.5569 1255.73 Z" fill="#000000" fill-rule="nonzero" fill-opacity="1" /><path clip-path="url(#clip000)" d="M93.9086 1228.18 Q90.2975 1228.18 88.4688 1231.75 Q86.6632 1235.29 86.6632 1242.42 Q86.6632 1249.53 88.4688 1253.09 Q90.2975 1256.63 93.9086 1256.63 Q97.5428 1256.63 99.3483 1253.09 Q101.177 1249.53 101.177 1242.42 Q101.177 1235.29 99.3483 1231.75 Q97.5428 1228.18 93.9086 1228.18 M93.9086 1224.48 Q99.7187 1224.48 102.774 1229.09 Q105.853 1233.67 105.853 1242.42 Q105.853 1251.15 102.774 1255.75 Q99.7187 1260.34 93.9086 1260.34 Q88.0984 1260.34 85.0197 1255.75 Q81.9642 1251.15 81.9642 1242.42 Q81.9642 1233.67 85.0197 1229.09 Q88.0984 1224.48 93.9086 1224.48 Z" fill="#000000" fill-rule="nonzero" fill-opacity="1" /><path clip-path="url(#clip000)" d="M57.7745 1052.4 L74.0939 1052.4 L74.0939 1056.33 L52.1495 1056.33 L52.1495 1052.4 Q54.8115 1049.64 59.3949 1045.02 Q64.0013 1040.36 65.1819 1039.02 Q67.4272 1036.5 68.3068 1034.76 Q69.2096 1033 69.2096 1031.31 Q69.2096 1028.56 67.2652 1026.82 Q65.3439 1025.08 62.2421 1025.08 Q60.043 1025.08 57.5893 1025.85 Q55.1588 1026.61 52.381 1028.16 L52.381 1023.44 Q55.2051 1022.31 57.6588 1021.73 Q60.1124 1021.15 62.1495 1021.15 Q67.5198 1021.15 70.7142 1023.83 Q73.9087 1026.52 73.9087 1031.01 Q73.9087 1033.14 73.0985 1035.06 Q72.3115 1036.96 70.205 1039.55 Q69.6263 1040.22 66.5245 1043.44 Q63.4226 1046.64 57.7745 1052.4 Z" fill="#000000" fill-rule="nonzero" fill-opacity="1" /><path clip-path="url(#clip000)" d="M93.9086 1024.85 Q90.2975 1024.85 88.4688 1028.42 Q86.6632 1031.96 86.6632 1039.09 Q86.6632 1046.2 88.4688 1049.76 Q90.2975 1053.3 93.9086 1053.3 Q97.5428 1053.3 99.3483 1049.76 Q101.177 1046.2 101.177 1039.09 Q101.177 1031.96 99.3483 1028.42 Q97.5428 1024.85 93.9086 1024.85 M93.9086 1021.15 Q99.7187 1021.15 102.774 1025.76 Q105.853 1030.34 105.853 1039.09 Q105.853 1047.82 102.774 1052.42 Q99.7187 1057.01 93.9086 1057.01 Q88.0984 1057.01 85.0197 1052.42 Q81.9642 1047.82 81.9642 1039.09 Q81.9642 1030.34 85.0197 1025.76 Q88.0984 1021.15 93.9086 1021.15 Z" fill="#000000" fill-rule="nonzero" fill-opacity="1" /><path clip-path="url(#clip000)" d="M67.9133 834.37 Q71.2698 835.088 73.1448 837.356 Q75.0429 839.625 75.0429 842.958 Q75.0429 848.074 71.5244 850.875 Q68.0059 853.675 61.5245 853.675 Q59.3486 853.675 57.0338 853.236 Q54.7421 852.819 52.2884 851.963 L52.2884 847.449 Q54.2328 848.583 56.5477 849.162 Q58.8625 849.74 61.3856 849.74 Q65.7837 849.74 68.0754 848.004 Q70.3902 846.268 70.3902 842.958 Q70.3902 839.902 68.2374 838.189 Q66.1078 836.453 62.2884 836.453 L58.2606 836.453 L58.2606 832.611 L62.4735 832.611 Q65.9226 832.611 67.7513 831.245 Q69.58 829.856 69.58 827.264 Q69.58 824.602 67.6819 823.19 Q65.8069 821.754 62.2884 821.754 Q60.3671 821.754 58.168 822.171 Q55.969 822.588 53.3301 823.467 L53.3301 819.301 Q55.9921 818.56 58.3069 818.19 Q60.6449 817.819 62.705 817.819 Q68.0291 817.819 71.1309 820.25 Q74.2327 822.657 74.2327 826.777 Q74.2327 829.648 72.5892 831.639 Q70.9457 833.606 67.9133 834.37 Z" fill="#000000" fill-rule="nonzero" fill-opacity="1" /><path clip-path="url(#clip000)" d="M93.9086 821.523 Q90.2975 821.523 88.4688 825.088 Q86.6632 828.629 86.6632 835.759 Q86.6632 842.865 88.4688 846.43 Q90.2975 849.972 93.9086 849.972 Q97.5428 849.972 99.3483 846.43 Q101.177 842.865 101.177 835.759 Q101.177 828.629 99.3483 825.088 Q97.5428 821.523 93.9086 821.523 M93.9086 817.819 Q99.7187 817.819 102.774 822.426 Q105.853 827.009 105.853 835.759 Q105.853 844.486 102.774 849.092 Q99.7187 853.675 93.9086 853.675 Q88.0984 853.675 85.0197 849.092 Q81.9642 844.486 81.9642 835.759 Q81.9642 827.009 85.0197 822.426 Q88.0984 817.819 93.9086 817.819 Z" fill="#000000" fill-rule="nonzero" fill-opacity="1" /><path clip-path="url(#clip000)" d="M66.5939 619.188 L54.7884 637.637 L66.5939 637.637 L66.5939 619.188 M65.367 615.114 L71.2466 615.114 L71.2466 637.637 L76.1772 637.637 L76.1772 641.526 L71.2466 641.526 L71.2466 649.674 L66.5939 649.674 L66.5939 641.526 L50.9921 641.526 L50.9921 637.012 L65.367 615.114 Z" fill="#000000" fill-rule="nonzero" fill-opacity="1" /><path clip-path="url(#clip000)" d="M93.9086 618.192 Q90.2975 618.192 88.4688 621.757 Q86.6632 625.299 86.6632 632.428 Q86.6632 639.535 88.4688 643.1 Q90.2975 646.641 93.9086 646.641 Q97.5428 646.641 99.3483 643.1 Q101.177 639.535 101.177 632.428 Q101.177 625.299 99.3483 621.757 Q97.5428 618.192 93.9086 618.192 M93.9086 614.489 Q99.7187 614.489 102.774 619.095 Q105.853 623.678 105.853 632.428 Q105.853 641.155 102.774 645.762 Q99.7187 650.345 93.9086 650.345 Q88.0984 650.345 85.0197 645.762 Q81.9642 641.155 81.9642 632.428 Q81.9642 623.678 85.0197 619.095 Q88.0984 614.489 93.9086 614.489 Z" fill="#000000" fill-rule="nonzero" fill-opacity="1" /><path clip-path="url(#clip000)" d="M53.793 411.783 L72.1494 411.783 L72.1494 415.718 L58.0754 415.718 L58.0754 424.191 Q59.0939 423.843 60.1124 423.681 Q61.131 423.496 62.1495 423.496 Q67.9365 423.496 71.3161 426.667 Q74.6957 429.839 74.6957 435.255 Q74.6957 440.834 71.2235 443.936 Q67.7513 447.015 61.4319 447.015 Q59.256 447.015 56.9875 446.644 Q54.7421 446.274 52.3347 445.533 L52.3347 440.834 Q54.418 441.968 56.6402 442.524 Q58.8625 443.079 61.3393 443.079 Q65.3439 443.079 67.6819 440.973 Q70.0198 438.866 70.0198 435.255 Q70.0198 431.644 67.6819 429.538 Q65.3439 427.431 61.3393 427.431 Q59.4643 427.431 57.5893 427.848 Q55.7375 428.265 53.793 429.144 L53.793 411.783 Z" fill="#000000" fill-rule="nonzero" fill-opacity="1" /><path clip-path="url(#clip000)" d="M93.9086 414.862 Q90.2975 414.862 88.4688 418.427 Q86.6632 421.968 86.6632 429.098 Q86.6632 436.204 88.4688 439.769 Q90.2975 443.311 93.9086 443.311 Q97.5428 443.311 99.3483 439.769 Q101.177 436.204 101.177 429.098 Q101.177 421.968 99.3483 418.427 Q97.5428 414.862 93.9086 414.862 M93.9086 411.158 Q99.7187 411.158 102.774 415.765 Q105.853 420.348 105.853 429.098 Q105.853 437.825 102.774 442.431 Q99.7187 447.015 93.9086 447.015 Q88.0984 447.015 85.0197 442.431 Q81.9642 437.825 81.9642 429.098 Q81.9642 420.348 85.0197 415.765 Q88.0984 411.158 93.9086 411.158 Z" fill="#000000" fill-rule="nonzero" fill-opacity="1" /><path clip-path="url(#clip000)" d="M64.3254 223.869 Q61.1773 223.869 59.3254 226.022 Q57.4967 228.175 57.4967 231.925 Q57.4967 235.652 59.3254 237.828 Q61.1773 239.98 64.3254 239.98 Q67.4735 239.98 69.3022 237.828 Q71.1541 235.652 71.1541 231.925 Q71.1541 228.175 69.3022 226.022 Q67.4735 223.869 64.3254 223.869 M73.6077 209.217 L73.6077 213.476 Q71.8485 212.643 70.0429 212.203 Q68.2606 211.763 66.5013 211.763 Q61.8717 211.763 59.418 214.888 Q56.9875 218.013 56.6402 224.332 Q58.006 222.318 60.0662 221.254 Q62.1263 220.166 64.6032 220.166 Q69.8115 220.166 72.8207 223.337 Q75.8531 226.485 75.8531 231.925 Q75.8531 237.249 72.705 240.466 Q69.5568 243.684 64.3254 243.684 Q58.33 243.684 55.1588 239.101 Q51.9875 234.494 51.9875 225.767 Q51.9875 217.573 55.8764 212.712 Q59.7652 207.828 66.3161 207.828 Q68.0754 207.828 69.8578 208.175 Q71.6633 208.522 73.6077 209.217 Z" fill="#000000" fill-rule="nonzero" fill-opacity="1" /><path clip-path="url(#clip000)" d="M93.9086 211.531 Q90.2975 211.531 88.4688 215.096 Q86.6632 218.638 86.6632 225.767 Q86.6632 232.874 88.4688 236.439 Q90.2975 239.98 93.9086 239.98 Q97.5428 239.98 99.3483 236.439 Q101.177 232.874 101.177 225.767 Q101.177 218.638 99.3483 215.096 Q97.5428 211.531 93.9086 211.531 M93.9086 207.828 Q99.7187 207.828 102.774 212.434 Q105.853 217.017 105.853 225.767 Q105.853 234.494 102.774 239.101 Q99.7187 243.684 93.9086 243.684 Q88.0984 243.684 85.0197 239.101 Q81.9642 234.494 81.9642 225.767 Q81.9642 217.017 85.0197 212.434 Q88.0984 207.828 93.9086 207.828 Z" fill="#000000" fill-rule="nonzero" fill-opacity="1" /><polyline clip-path="url(#clip001)" style="stroke:#009af9; stroke-linecap:round; stroke-linejoin:round; stroke-width:4; stroke-opacity:1; fill:none" points="204.426,1445.72 222.899,1417.49 331.093,1254.82 381.425,1180.8 448.888,1083.39 504.634,1004.57 556.472,932.737 621.546,844.698 679.919,767.92 746.733,682.82 796.678,621.32 860.557,545.549 918.86,479.494 952.038,443.345 985.216,408.318 1011.52,381.395 1037.82,355.258 1070.49,323.941 1103.17,293.983 1128.19,272.016 1153.22,250.945 1188.5,222.856 1223.78,196.798 1250.14,178.753 1276.51,162.015 1306.49,144.682 1336.47,129.295 1366.17,116.133 1395.86,105.213 1428.53,96.0254 1461.19,90.0953 1486.15,87.9763 1511.1,88.142 1526.84,89.5133 1542.59,91.9319 1558.33,95.4599 1574.07,100.165 1588.63,105.629 1603.2,112.227 1617.76,120.03 1632.32,129.115 1647.34,139.915 1662.35,152.271 1677.37,166.295 1692.39,182.114 1707.61,200.124 1722.83,220.288 1738.06,242.793 1753.28,267.851 1769.17,297.003 1785.07,329.521 1793.01,347.156 1800.96,365.776 1808.91,385.437 1816.86,406.202 1823.12,423.38 1829.38,441.32 1835.64,460.06 1841.9,479.642 1848.16,500.108 1854.42,521.509 1860.68,543.896 1866.94,567.325 1874.07,595.351 1881.2,624.909 1888.33,656.11 1895.45,689.076 1902.58,723.946 1909.71,760.874 1916.84,800.034 1923.97,841.624 1931.1,885.867 1938.23,933.021 1941.79,957.78 1945.36,983.382 1948.92,1009.87 1952.48,1037.29 1956.05,1065.71 1959.61,1095.16 1963.18,1125.72 1966.74,1157.46 1970.31,1190.44 1973.87,1224.75 1977.43,1260.47 1981,1297.72 1982.6,1314.95 1984.2,1332.52 1985.8,1350.44 1987.4,1368.73 1989,1387.38 1990.6,1406.42 1992.2,1425.86 1993.79,1445.72 "/>
<polyline clip-path="url(#clip001)" style="stroke:#e26f46; stroke-linecap:round; stroke-linejoin:round; stroke-width:4; stroke-opacity:1; fill:none" points="204.426,1445.72 225.958,1429.5 352.074,1336.75 410.743,1294.99 489.381,1240.51 554.36,1196.87 614.784,1157.48 652.711,1133.38 690.638,1109.78 724.658,1089.06 758.679,1068.77 797.619,1046.09 836.56,1024.04 865.669,1007.98 894.777,992.284 932.007,972.777 969.237,953.93 1003.22,937.33 1037.2,921.331 1075.87,903.886 1114.54,887.296 1145.2,874.781 1175.86,862.856 1213.95,848.901 1252.04,835.951 1281.2,826.747 1310.37,818.195 1351.5,807.302 1392.62,797.855 1423.35,791.8 1454.09,786.655 1489.03,781.974 1523.98,778.616 1558.59,776.681 1593.2,776.225 1612.24,776.642 1631.28,777.557 1650.32,778.991 1669.36,780.964 1698.45,785.072 1727.53,790.579 1745.88,794.817 1764.24,799.677 1782.59,805.187 1800.94,811.377 1817.91,817.736 1834.89,824.73 1851.86,832.391 1868.83,840.748 1886.34,850.132 1903.84,860.331 1921.35,871.39 1938.85,883.352 1956.6,896.452 1974.34,910.587 1992.08,925.82 2009.83,942.217 2028.35,960.659 2046.88,980.541 2065.41,1001.96 2083.94,1025.04 2098.53,1044.46 2113.13,1065.05 2120.42,1075.81 2127.72,1086.89 2135.02,1098.29 2142.32,1110.04 2150.63,1123.85 2158.94,1138.14 2167.24,1152.91 2175.55,1168.21 2183.86,1184.03 2192.17,1200.42 2200.48,1217.38 2208.79,1234.95 2217.1,1253.15 2225.41,1272.02 2233.72,1291.58 2242.03,1311.86 2250.34,1332.91 2258.65,1354.76 2266.96,1377.45 2275.27,1401.02 2279,1411.9 2282.72,1422.97 2286.45,1434.24 2290.18,1445.72 "/>
<path clip-path="url(#clip000)" d="M215.55 250.738 L489.07 250.738 L489.07 95.2176 L215.55 95.2176  Z" fill="#ffffff" fill-rule="evenodd" fill-opacity="1"/>
<polyline clip-path="url(#clip000)" style="stroke:#000000; stroke-linecap:round; stroke-linejoin:round; stroke-width:4; stroke-opacity:1; fill:none" points="215.55,250.738 489.07,250.738 489.07,95.2176 215.55,95.2176 215.55,250.738 "/>
<polyline clip-path="url(#clip000)" style="stroke:#009af9; stroke-linecap:round; stroke-linejoin:round; stroke-width:4; stroke-opacity:1; fill:none" points="240.115,147.058 387.509,147.058 "/>
<path clip-path="url(#clip000)" d="M425.917 166.745 Q424.111 171.375 422.398 172.787 Q420.685 174.199 417.815 174.199 L414.412 174.199 L414.412 170.634 L416.912 170.634 Q418.672 170.634 419.644 169.8 Q420.616 168.967 421.797 165.865 L422.56 163.921 L412.074 138.412 L416.588 138.412 L424.69 158.689 L432.792 138.412 L437.306 138.412 L425.917 166.745 Z" fill="#000000" fill-rule="nonzero" fill-opacity="1" /><path clip-path="url(#clip000)" d="M444.597 160.402 L452.236 160.402 L452.236 134.037 L443.926 135.703 L443.926 131.444 L452.19 129.778 L456.866 129.778 L456.866 160.402 L464.505 160.402 L464.505 164.338 L444.597 164.338 L444.597 160.402 Z" fill="#000000" fill-rule="nonzero" fill-opacity="1" /><polyline clip-path="url(#clip000)" style="stroke:#e26f46; stroke-linecap:round; stroke-linejoin:round; stroke-width:4; stroke-opacity:1; fill:none" points="240.115,198.898 387.509,198.898 "/>
<path clip-path="url(#clip000)" d="M425.917 218.585 Q424.111 223.215 422.398 224.627 Q420.685 226.039 417.815 226.039 L414.412 226.039 L414.412 222.474 L416.912 222.474 Q418.672 222.474 419.644 221.64 Q420.616 220.807 421.797 217.705 L422.56 215.761 L412.074 190.252 L416.588 190.252 L424.69 210.529 L432.792 190.252 L437.306 190.252 L425.917 218.585 Z" fill="#000000" fill-rule="nonzero" fill-opacity="1" /><path clip-path="url(#clip000)" d="M447.815 212.242 L464.134 212.242 L464.134 216.178 L442.19 216.178 L442.19 212.242 Q444.852 209.488 449.435 204.858 Q454.042 200.205 455.222 198.863 Q457.468 196.34 458.347 194.604 Q459.25 192.844 459.25 191.155 Q459.25 188.4 457.306 186.664 Q455.384 184.928 452.283 184.928 Q450.083 184.928 447.63 185.692 Q445.199 186.455 442.421 188.006 L442.421 183.284 Q445.246 182.15 447.699 181.571 Q450.153 180.993 452.19 180.993 Q457.56 180.993 460.755 183.678 Q463.949 186.363 463.949 190.854 Q463.949 192.983 463.139 194.905 Q462.352 196.803 460.245 199.395 Q459.667 200.067 456.565 203.284 Q453.463 206.479 447.815 212.242 Z" fill="#000000" fill-rule="nonzero" fill-opacity="1" /></svg>
